<?xml version="1.0" encoding="UTF-8"?>
<svg width="26px" height="26px" viewBox="0 0 26 26" version="1.1" xmlns="http://www.w3.org/2000/svg" xmlns:xlink="http://www.w3.org/1999/xlink">
    <title>icon-facebook</title>
    <g id="Web-Design-System" stroke="none" stroke-width="1" fill="none" fill-rule="evenodd">
        <g id="Footer" transform="translate(-1134.000000, -457.000000)" fill="#182E7D">
            <g id="Social-2" transform="translate(1134.000000, 457.000000)">
                <path d="M13,0 C20.1797017,0 26,5.82029825 26,13 C26,20.1797017 20.1797017,26 13,26 C5.82029825,26 0,20.1797017 0,13 C0,5.82029825 5.82029825,0 13,0 Z M14.6225537,6.06666667 C12.7975058,6.06666667 11.5472988,7.21471111 11.5472988,9.32475556 L11.5472988,11.2666667 L9.53333333,11.2666667 L9.53333333,13.7314667 L11.5472988,13.7314667 L11.5472988,19.9333333 L14.0165153,19.9333333 L14.0165153,13.7320444 L15.9490209,13.7320444 L16.2557954,11.2672444 L14.0159376,11.2672444 L14.0159376,9.56915556 C14.0165153,8.85675556 14.2083215,8.36911111 15.200861,8.36911111 L16.4666667,8.36911111 L16.4666667,6.16431111 C16.2482849,6.13426667 15.4972363,6.06666667 14.6225537,6.06666667 Z" id="icon-facebook"></path>
            </g>
        </g>
    </g>
</svg>