<?xml version="1.0" encoding="UTF-8"?>
<svg width="26px" height="26px" viewBox="0 0 26 26" version="1.1" xmlns="http://www.w3.org/2000/svg" xmlns:xlink="http://www.w3.org/1999/xlink">
    <title>icon-instagram</title>
    <g id="Web-Design-System" stroke="none" stroke-width="1" fill="none" fill-rule="evenodd">
        <g id="Footer" transform="translate(-1294.000000, -457.000000)" fill="#182E7D" fill-rule="nonzero">
            <g id="Social-2" transform="translate(1134.000000, 457.000000)">
                <path d="M173,0 C180.178604,0 186,5.82139589 186,13 C186,20.1786041 180.178604,26 173,26 C165.821396,26 160,20.1786041 160,13 C160,5.82139589 165.821396,0 173,0 Z M173.707929,5.53564398 L172.292071,5.53564354 C170.897161,5.53790223 170.614584,5.54861915 169.922379,5.58018495 C169.127731,5.61648557 168.585205,5.74264529 168.110321,5.92712402 C167.612228,6.11457823 167.16095,6.40835569 166.788223,6.78822325 C166.408356,7.16094971 166.11438,7.61222841 165.926926,8.11032107 C165.742447,8.58520508 165.616287,9.12773134 165.580185,9.92237853 C165.548447,10.6145835 165.537857,10.8971607 165.535635,12.2920712 L165.535635,13.7079293 C165.537861,15.1028426 165.548473,15.3854423 165.580383,16.0778198 C165.616486,16.8722687 165.742844,17.4149933 165.927322,17.8896789 C166.114777,18.3877716 166.408554,18.8390503 166.788223,19.2117767 C167.161148,19.5916443 167.612228,19.8854218 168.110519,20.072876 C168.585205,20.2573547 169.12793,20.3835144 169.922379,20.4198151 C170.130092,20.4292848 170.300912,20.4368781 170.475945,20.4429296 L170.653905,20.4484796 C171.018725,20.4586011 171.455208,20.4630012 172.29221,20.4643565 L173.708127,20.4643565 C175.103038,20.4620978 175.385615,20.4513809 176.07782,20.4198151 C176.872269,20.3835144 177.414993,20.2573547 177.889679,20.072876 C178.89241,19.6850738 179.685074,18.8924103 180.072876,17.8896789 C180.257355,17.4147949 180.383713,16.8722687 180.419815,16.0776215 C180.451553,15.3854165 180.462143,15.1028393 180.464365,13.7079288 L180.464366,12.2920712 C180.462146,10.8971607 180.451579,10.6145835 180.420013,9.92237853 C180.383713,9.12773134 180.257553,8.58520508 180.072876,8.11032107 C179.88562,7.61222841 179.591644,7.16114806 179.211975,6.78822325 C178.83905,6.40835569 178.387772,6.11437988 177.889679,5.92692567 C177.414795,5.74264529 176.872269,5.61648557 176.077621,5.5803833 C175.385416,5.54864502 175.102839,5.5379056 173.707929,5.53564398 Z M173,9.16680908 C175.116943,9.16680908 176.833191,10.8828583 176.833191,13 C176.833191,15.1171417 175.116943,16.8331909 173,16.8331909 C170.882858,16.8331909 169.166611,15.1171417 169.166611,13 C169.166611,10.8828583 170.882858,9.16680908 173,9.16680908 Z M177.4,7.2 C178.06271,7.2 178.6,7.7372896 178.6,8.4 C178.599734,9.0627104 178.06271,9.6 177.4,9.6 C176.73729,9.6 176.2,9.0627104 176.2,8.4 C176.2,7.7372896 176.73729,7.2 177.4,7.2 Z" id="icon-instagram"></path>
            </g>
        </g>
    </g>
</svg>