<?xml version="1.0" encoding="UTF-8"?>
<svg width="26px" height="26px" viewBox="0 0 26 26" version="1.1" xmlns="http://www.w3.org/2000/svg" xmlns:xlink="http://www.w3.org/1999/xlink">
    <title>icon-linkedin</title>
    <g id="Web-Design-System" stroke="none" stroke-width="1" fill="none" fill-rule="evenodd">
        <g id="Footer" transform="translate(-1254.000000, -457.000000)" fill="#182E7D" fill-rule="nonzero">
            <g id="Social-2" transform="translate(1134.000000, 457.000000)">
                <path d="M133,0 C125.821396,0 120,5.82139589 120,13 C120,20.1786041 125.821396,26 133,26 C140.178604,26 146,20.1786041 146,13 C146,5.82139589 140.178604,0 133,0 Z M129.222351,19.6523438 L126.056259,19.6523438 L126.056259,10.1270904 L129.222351,10.1270904 L129.222351,19.6523438 Z M127.639404,8.82641602 L127.618774,8.82641602 C126.556335,8.82641602 125.869202,8.09504698 125.869202,7.18098448 C125.869202,6.2462921 126.577362,5.53515625 127.660431,5.53515625 C128.7435,5.53515625 129.410004,6.2462921 129.430634,7.18098448 C129.430634,8.09504698 128.7435,8.82641602 127.639404,8.82641602 Z M140.638611,19.6523438 L137.472916,19.6523438 L137.472916,14.5565643 C137.472916,13.2759247 137.014496,12.4025269 135.868942,12.4025269 C134.994354,12.4025269 134.47345,12.9916687 134.244537,13.560379 C134.160828,13.7639008 134.140396,14.0483551 134.140396,14.3330078 L134.140396,19.6523438 L130.974503,19.6523438 C130.974503,19.6523438 131.015961,11.0207215 130.974503,10.1270904 L134.140396,10.1270904 L134.140396,11.475769 C134.561127,10.8267212 135.313919,9.90353396 136.993668,9.90353396 C139.076691,9.90353396 140.638611,11.2649078 140.638611,14.1905823 L140.638611,19.6523438 Z" id="icon-linkedin"></path>
            </g>
        </g>
    </g>
</svg>