<svg width="20" height="20" viewBox="0 0 20 20" xmlns="http://www.w3.org/2000/svg"><path d="m19.595 17.64-4.227-4.227a8.417 8.417 0 0 0 1.592-4.934 8.417 8.417 0 0 0-2.484-5.995A8.424 8.424 0 0 0 8.479 0a8.419 8.419 0 0 0-5.996 2.484A8.421 8.421 0 0 0 0 8.48c0 2.265.881 4.394 2.483 5.996A8.426 8.426 0 0 0 8.48 16.96a8.402 8.402 0 0 0 4.934-1.592l4.227 4.227a1.378 1.378 0 0 0 1.955 0c.54-.54.54-1.415 0-1.955ZM4.439 12.52a5.678 5.678 0 0 1-1.674-4.041c0-1.526.594-2.96 1.674-4.04a5.674 5.674 0 0 1 4.04-1.675c1.527 0 2.962.595 4.041 1.675a5.677 5.677 0 0 1 1.675 4.04c0 1.526-.594 2.96-1.675 4.041a5.674 5.674 0 0 1-4.04 1.673 5.673 5.673 0 0 1-4.04-1.673Z" fill="#FFF" fill-rule="nonzero"/></svg>