<?xml version="1.0" encoding="UTF-8"?>
<svg width="26px" height="26px" viewBox="0 0 26 26" version="1.1" xmlns="http://www.w3.org/2000/svg" xmlns:xlink="http://www.w3.org/1999/xlink">
    <title>icon-twitter</title>
    <g id="Web-Design-System" stroke="none" stroke-width="1" fill="none" fill-rule="evenodd">
        <g id="Footer" transform="translate(-1174.000000, -457.000000)" fill="#182E7D" fill-rule="nonzero">
            <g id="Social-2" transform="translate(1134.000000, 457.000000)">
                <path d="M53,0 C45.8213959,0 40,5.82139589 40,13 C40,20.1786041 45.8213959,26 53,26 C60.1786041,26 66,20.1786041 66,13 C66,5.82139589 60.1786041,0 53,0 Z M58.9356537,10.1360168 C58.9414062,10.2639618 58.9441834,10.3925018 58.9441834,10.5216369 C58.9441834,14.4645233 55.9429321,19.0112305 50.4543915,19.0114288 L50.4545898,19.0114288 L50.4543915,19.0114288 C48.7692871,19.0114288 47.2012177,18.5175018 45.8807068,17.6710815 C46.1141815,17.6986542 46.3518219,17.7123413 46.5924377,17.7123413 C47.990509,17.7123413 49.2770996,17.2354736 50.2984772,16.4350738 C48.9922485,16.4108734 47.8909302,15.5481873 47.5108643,14.3625641 C47.6927643,14.3974762 47.8798218,14.4165192 48.07164,14.4165192 C48.3439941,14.4165192 48.6078186,14.3798218 48.858551,14.3113861 C47.4932099,14.0380401 46.4646912,12.8313904 46.4646912,11.3865051 C46.4646912,11.3730164 46.4646912,11.3609161 46.4650879,11.3484192 C46.8671723,11.5719757 47.3269806,11.7064667 47.8165436,11.7215424 C47.0153504,11.1869507 46.4886932,10.2730865 46.4886932,9.23782346 C46.4886932,8.69113162 46.6364746,8.17895508 46.8927612,7.73799132 C48.3642273,9.54350282 50.5632935,10.7309112 53.0432434,10.8556824 C52.9920654,10.637085 52.965683,10.4093628 52.965683,10.175293 C52.965683,8.52807617 54.302063,7.19169618 55.9498749,7.19169618 C56.808197,7.19169618 57.5834045,7.55450439 58.1279144,8.13452148 C58.8077088,8.00042725 59.4460449,7.7520752 60.0226898,7.41029357 C59.7995301,8.10675049 59.3266297,8.69113162 58.7105103,9.06068419 C59.3141327,8.9884796 59.8893891,8.82839963 60.4239807,8.59075928 C60.0246734,9.18922423 59.5182495,9.71488954 58.9356537,10.1360168 Z" id="icon-twitter"></path>
            </g>
        </g>
    </g>
</svg>