<?xml version="1.0" encoding="UTF-8"?>
<svg width="26px" height="26px" viewBox="0 0 26 26" version="1.1" xmlns="http://www.w3.org/2000/svg" xmlns:xlink="http://www.w3.org/1999/xlink">
    <title>icon-youtube</title>
    <g id="Web-Design-System" stroke="none" stroke-width="1" fill="none" fill-rule="evenodd">
        <g id="Footer" transform="translate(-1214.000000, -457.000000)" fill="#182E7D" fill-rule="nonzero">
            <g id="Social-2" transform="translate(1134.000000, 457.000000)">
                <path d="M93,0 C100.178604,0 106,5.82139589 106,13 C106,20.1786041 100.178604,26 93,26 C85.8213959,26 80,20.1786041 80,13 C80,5.82139589 85.8213959,0 93,0 Z M93.1064792,7.31271911 L92.8140246,7.31299952 C92.3955798,7.31474785 91.326221,7.32261531 90.1754979,7.35801892 L89.6790099,7.37494021 C88.4336386,7.42177037 87.1882673,7.50372315 86.6434174,7.64714052 C85.9608459,7.83439638 85.3986816,8.39656066 85.2114258,9.09242247 C84.9015735,10.2695674 84.8786214,12.6169322 84.8769213,12.958231 L84.8769213,13.0419746 C84.8786214,13.3849181 84.9015735,15.7429222 85.2114258,16.9075775 C85.39888,17.6034393 85.9475556,18.1523133 86.6434174,18.3395691 C87.8179151,18.6576774 92.158344,18.6849438 92.8937886,18.6872809 L93.1859754,18.6870005 C93.6044202,18.6852522 94.673779,18.6773847 95.8245021,18.6419811 L96.3209901,18.6250598 C97.5663614,18.5782296 98.8117327,18.4962768 99.3565826,18.3528595 C100.052444,18.1656036 100.60112,17.6169281 100.788574,16.9210663 C101.123086,15.6497498 101.123086,13.0132904 101.123086,13.0132904 L101.123069,12.920684 C101.121607,12.4415165 101.097846,10.2224816 100.788574,9.09242247 C100.60112,8.39656066 100.052444,7.84768674 99.3565826,7.66043088 C98.8117327,7.51131765 97.5663614,7.42611008 96.3209901,7.37742005 L95.8245021,7.35982672 C94.5915845,7.32038779 93.4520698,7.31381463 93.1064792,7.31271911 Z M91.3807526,10.5644836 L95.6094818,13 L91.3807526,15.4355164 L91.3807526,10.5644836 Z" id="icon-youtube"></path>
            </g>
        </g>
    </g>
</svg>